<?xml version="1.0" encoding="UTF-8" standalone="no"?>
<svg width="55px" height="55px" viewBox="0 0 55 55" version="1.1" xmlns="http://www.w3.org/2000/svg" xmlns:xlink="http://www.w3.org/1999/xlink">
    <!-- Generator: Sketch 50.2 (55047) - http://www.bohemiancoding.com/sketch -->
    <title>islands</title>
    <desc>Created with Sketch.</desc>
    <defs></defs>
    <g id="Page-1" stroke="none" stroke-width="1" fill="none" fill-rule="evenodd">
        <g id="Group-16-Copy" transform="translate(9.000000, 1.000000)" fill="#000000">
            <path d="M12.8954545,35.1099712 L12.8554545,34.0243992 L12.7381818,34.0261529 C12.6545455,34.0261529 12.57,34.0226454 12.4881818,34.0156304 L11.1590909,33.8981291 L11.0554545,34.9898393 L8.97272727,34.8056954 L9.07636364,33.7148621 L7.26545455,33.5552707 L7.16181818,34.646104 L5.08,34.462837 L5.18363636,33.3711268 L4.52545455,33.3132531 C4.23363636,33.2869468 3.95181818,33.2176736 3.68727273,33.1071873 L3.24090909,34.103318 C2.54818182,33.8165797 1.96636364,33.3500818 1.55818182,32.7573139 L2.50181818,32.1513928 C2.24909091,31.7848588 2.09545455,31.360451 2.05545455,30.923767 L0.940909091,31.0167158 C0.930909091,30.9079832 0.909090909,30.803635 0.909090909,30.6931487 L0.909090909,28.9823643 L2.04545455,28.9823643 L2.04545455,27.228613 L0.909090909,27.228613 L0.909090909,25.2117991 L2.04545455,25.2117991 L2.04545455,24.1376264 C2.04545455,24.0727376 2.04818182,24.0078488 2.05272727,23.94296 L2.08545455,23.5238135 L0.951818182,23.4431409 L1.10727273,21.4315882 L2.24090909,21.5122608 L2.37454545,19.7637708 L1.24181818,19.6830982 L1.39727273,17.6715455 L2.53,17.752218 L2.66454545,16.003728 L1.53181818,15.9230555 L1.54090909,15.8038004 C1.56363636,15.5109239 1.62181818,15.221555 1.71454545,14.9418316 L2.05363636,13.923779 L3.13545455,14.2587455 L3.69,12.5882974 L2.60818182,12.2533309 L3.24636364,10.3329733 L4.32818182,10.6679398 L4.89545455,8.96417043 L4.03727273,8.67480148 L3.81818182,8.62218894 C4.05636364,7.93208781 4.49363636,7.33230488 5.08636364,6.88071393 L5.81909091,7.71374578 L7.22,6.6764019 L6.52818182,5.80741815 L8.18636364,4.57891539 L8.87818182,5.44789914 L10.32,4.37898774 L9.62818182,3.51000399 L11.2863636,2.2823781 L11.9781818,3.15136185 L12.8427273,2.51124264 C12.9872727,2.40338694 13.1436364,2.31043812 13.3063636,2.23327306 L12.8118182,1.25731048 C13.3445455,1.0082778 13.9218182,0.875869582 14.5018182,0.875869582 C14.6572727,0.875869582 14.8109091,0.896914597 14.9654545,0.91445211 L14.8318182,1.98599414 C15.2845455,2.03860667 15.7190909,2.20170554 16.0881818,2.45687635 L16.7409091,1.57824696 C16.8309091,1.63962826 16.9254545,1.69136392 17.0109091,1.76151397 L18.3645455,2.87514603 L17.6272727,3.70905476 L19.0109091,4.84723933 L19.7481818,4.0133306 L21.34,5.32162905 L20.6018182,6.15553778 L21.9845455,7.29372235 L22.7227273,6.45893675 L22.7345455,6.46858238 C23.3045455,6.93771084 23.6945455,7.55503129 23.9063636,8.23022553 L22.8381818,8.54414701 C22.9154545,8.78967218 22.9545455,9.04571987 22.9545455,9.30527506 L22.9545455,10.0278206 L24.0909091,10.0278206 L24.0909091,12.0446345 L22.9545455,12.0446345 L22.9545455,13.7983858 L24.0909091,13.7983858 L24.0909091,14.5989733 C24.0909091,15.0330267 24.0045455,15.4583114 23.8527273,15.8625511 L22.7918182,15.4933864 C22.73,15.6591159 22.65,15.8187073 22.5554545,15.968653 L21.9890909,16.8630662 L22.9590909,17.4347891 L21.87,19.1560959 L20.8990909,18.5852499 L19.9527273,20.0829535 L20.9227273,20.6529226 L19.8327273,22.3742295 L18.8636364,21.8033835 L17.9163636,23.3002102 L18.8854545,23.8710562 L18.8454545,23.9341913 C18.6681818,24.2156683 18.5354545,24.5199442 18.4518182,24.8373732 L18.2236364,25.7037263 L17.1227273,25.4336486 L16.6736364,27.1339105 L17.7754545,27.4031113 L17.2609091,29.3585439 L16.1590909,29.0884662 L15.7109091,30.7887281 L16.8127273,31.0579289 L16.4818182,32.3144917 C16.4145455,32.5670319 16.3172727,32.8037883 16.2036364,33.0300222 L15.1881818,32.5503713 C14.9881818,32.9449653 14.6854545,33.2869468 14.3136364,33.5412407 L14.9754545,34.4435457 C14.38,34.8521698 13.66,35.0845418 12.8954545,35.1099712 M25,14.5989733 L25,9.30527506 C25,7.95488658 24.3890909,6.67815566 23.3236364,5.80128002 L17.6,1.09421161 C15.8963636,-0.307035649 13.3718182,-0.369293819 11.5963636,0.946896508 L4.57363636,6.14939965 C3.79909091,6.72287631 3.23272727,7.49978813 2.93545455,8.39507815 L0.849090909,14.6743846 C0.734545455,15.0189967 0.662727273,15.376762 0.634545455,15.7389116 L0.0136363636,23.7956449 C0.00454545455,23.9096388 0,24.0245095 0,24.1376264 L0,30.6931487 C0,33.0887729 1.86454545,35.0599893 4.33818182,35.2783314 L12.3018182,35.9798319 C12.4518182,35.992985 12.6009091,36 12.7481818,36 C14.9172727,36 16.8181818,34.5961221 17.3618182,32.5302031 L19.3327273,25.0539615 C19.3945455,24.8198357 19.4918182,24.5979861 19.6218182,24.3910435 L24.3018182,16.9972281 C24.7590909,16.2755595 25,15.4460351 25,14.5989733" id="Fill-1"></path>
            <path d="M32.5506093,52.0295379 C32.5497185,52.0304385 32.547937,52.0313391 32.5470463,52.0322396 L31.7792233,51.2190188 C31.4594456,51.5288172 31.0657359,51.7557625 30.6390686,51.8755393 L30.932124,52.944524 C30.4965493,53.0670024 30.0431596,53.1282416 29.5808625,53.0841134 L28.8237286,53.0138684 L28.9252736,51.8926502 L27.1509078,51.7287452 L27.0493628,52.8499634 L25.0095548,52.6608423 L25.110209,51.5396241 L24.4323514,51.4774843 C24.1562202,51.4513676 23.887215,51.3847249 23.6351339,51.2766557 L23.2066851,52.3015121 C22.5252645,52.0124269 21.9525149,51.5387235 21.5472256,50.9335359 L22.4655846,50.3040327 C22.2143942,49.9302933 22.0594044,49.4962153 22.0166486,49.0459269 L20.9245942,49.1521949 C20.9130145,49.0306171 20.8907459,48.9117409 20.8907459,48.7865607 L20.8907459,47.0610555 L22.0041782,47.0610555 L22.0041782,46.0262928 C22.0050689,45.8335693 22.0255561,45.6408459 22.0647489,45.4544265 L20.9860557,45.2211771 C21.1063064,44.6565154 21.342354,44.118871 21.6968709,43.661378 L21.9649854,43.3164571 L22.8414793,44.0117024 L23.939769,42.5932939 L23.063275,41.8989492 L24.3272434,40.2680045 L25.2037374,40.9632498 L26.302027,39.5457419 L25.4264238,38.8504966 C25.5172799,38.732521 25.5876488,38.6037385 25.6615807,38.4767572 L26.635166,39.0522258 C26.8284578,38.7181118 26.9789939,38.3614834 27.0814296,37.9931475 L27.3174773,37.1511081 L26.2468008,36.8440114 L26.8035169,34.8510349 L27.8741935,35.1581316 L28.0140406,34.6583115 C28.0977707,34.3611211 28.236727,34.0891469 28.4291281,33.8513946 L27.5775751,33.1498453 C28.0434352,32.5770784 28.6838815,32.1727194 29.3973689,32.0016098 L29.645887,33.082302 C29.9451776,33.012057 30.2542664,33.0039518 30.5722627,33.0660916 L31.0363413,33.1579505 L31.2492295,32.0529427 L32.0624805,32.2132454 C32.4909293,32.2978996 32.8890927,32.4717109 33.2587522,32.6932528 L32.7011453,33.6451625 C33.0708048,33.8667044 33.3861289,34.1801052 33.6141598,34.5520434 L33.6471174,34.6051774 L34.5726024,33.9783759 L35.6691105,35.7732256 L34.7222477,36.364004 L35.6584216,37.8976863 L36.6061752,37.3060073 L37.1174633,38.1426432 C37.248403,38.3569805 37.3588554,38.5839258 37.444367,38.8171752 L37.5753067,39.1720025 L36.533134,39.5655546 L37.1557654,41.2532356 L38.197938,40.8596835 L38.8695604,42.6797493 C38.8855939,42.722977 38.8927198,42.7671052 38.9069718,42.8103329 L37.8594546,43.1642596 C37.9503107,43.4398361 37.9957387,43.7262195 37.9957387,44.0144041 C37.994848,44.1774085 37.9814868,44.3395124 37.9520922,44.499815 L39.0405836,44.6970414 C38.913207,45.4111988 38.5854125,46.0821285 38.0767966,46.6305798 L37.2733438,45.8650895 L36.0236274,47.0862717 L36.7959041,47.8967908 L35.3199382,49.3341115 L34.5476615,48.5226917 L33.2649874,49.7717918 L34.0363734,50.5832115 L32.5506093,52.0295379 Z M39.7041893,42.365448 L38.2798867,38.5019734 C38.1729972,38.2146894 38.0376038,37.93461 37.8763788,37.6698404 L35.3172659,33.4839593 C34.6340638,32.3654428 33.5090518,31.5801399 32.2335037,31.3288789 L30.9561742,31.0767174 C28.8201656,30.6588498 26.6779218,31.9872006 26.0855758,34.1071584 L25.1529648,37.442895 C25.0674532,37.7517929 24.9231524,38.0399774 24.7245161,38.2957413 L20.9958539,43.1057221 C20.3545169,43.9342528 20,44.9699161 20,46.0226905 L20,48.7865607 C20,51.2469366 21.8278105,53.2714333 24.2506393,53.495677 L29.4998047,53.9810879 C29.6414333,53.9945965 29.7839526,54 29.9255812,54 C31.1289789,54 32.292293,53.5307995 33.1678961,52.6788538 L38.5667068,47.423988 C39.9099516,46.1163504 40.3562153,44.1305785 39.7041893,42.365448 Z" id="Fill-4"></path>
        </g>
    </g>
</svg>